<svg width="48" height="47" viewBox="0 0 48 47" fill="none" xmlns="http://www.w3.org/2000/svg">
<path fill-rule="evenodd" clip-rule="evenodd" d="M24 0C10.7452 0 0 10.4382 0 23.3143C0 36.1904 10.7452 46.6286 24 46.6286C37.2548 46.6286 48 36.1904 48 23.3143C48 10.4382 37.2548 0 24 0ZM11.5216 19.3099H16.9605V35.1847H11.5216V19.3099ZM17.3188 14.3992C17.2835 12.8427 16.1377 11.6571 14.277 11.6571C12.4164 11.6571 11.2 12.8427 11.2 14.3992C11.2 15.9235 12.3805 17.1431 14.2064 17.1431H14.2412C16.1377 17.1431 17.3188 15.9235 17.3188 14.3992ZM30.3131 18.9371C33.8922 18.9371 36.5754 21.2065 36.5754 26.0826L36.5752 35.1847H31.1365V26.6917C31.1365 24.5584 30.3494 23.1027 28.3805 23.1027C26.8779 23.1027 25.9829 24.0841 25.5898 25.0319C25.446 25.3716 25.4107 25.8449 25.4107 26.3193V35.1851H19.9711C19.9711 35.1851 20.0428 20.7999 19.9711 19.3103H25.4107V21.5589C26.1325 20.478 27.4254 18.9371 30.3131 18.9371Z" fill="black"/>
</svg>
