<svg width="48" height="47" viewBox="0 0 48 47" fill="none" xmlns="http://www.w3.org/2000/svg">
<path d="M24.0432 0.174805C10.8147 0.174805 0.0876694 10.7711 0.0876694 23.8432C0.0876694 34.3007 6.95167 43.1728 16.4699 46.3025C17.6672 46.5216 18.1067 45.789 18.1067 45.1639C18.1067 44.5995 18.0845 42.735 18.0742 40.7572C11.4097 42.189 10.0034 37.9646 10.0034 37.9646C8.91372 35.2289 7.3436 34.5014 7.3436 34.5014C5.17012 33.0324 7.50744 33.0626 7.50744 33.0626C9.91299 33.2291 11.1796 35.5016 11.1796 35.5016C13.3162 39.1201 16.7837 38.074 18.1507 37.4692C18.3658 35.9398 18.9866 34.8949 19.6717 34.3043C14.3508 33.7058 8.75742 31.6763 8.75742 22.607C8.75742 20.0229 9.69322 17.9115 11.2257 16.254C10.9769 15.6574 10.157 13.2505 11.4577 9.9903C11.4577 9.9903 13.4694 9.35417 18.0472 12.4164C19.9581 11.892 22.0074 11.629 24.0432 11.62C26.0791 11.629 28.13 11.892 30.0444 12.4164C34.6167 9.35417 36.6256 9.9903 36.6256 9.9903C37.9295 13.2505 37.1092 15.6574 36.8604 16.254C38.3964 17.9115 39.3259 20.0229 39.3259 22.607C39.3259 31.6978 33.7218 33.6995 28.3874 34.2854C29.2467 35.0199 30.0123 36.4603 30.0123 38.6686C30.0123 41.8351 29.9845 44.3839 29.9845 45.1639C29.9845 45.7938 30.4157 46.5318 31.63 46.2994C41.1431 43.1661 47.9984 34.2972 47.9984 23.8432C47.9984 10.7711 37.273 0.174805 24.0432 0.174805Z" fill="black"/>
<path d="M9.16086 34.1577C9.1081 34.2757 8.92086 34.3105 8.75028 34.2298C8.57653 34.1526 8.47894 33.9923 8.53527 33.8743C8.58684 33.7532 8.77448 33.7199 8.94784 33.8002C9.12198 33.8778 9.22116 34.0397 9.16086 34.1577Z" fill="black"/>
<path d="M10.1312 35.2269C10.0169 35.3316 9.79359 35.283 9.64205 35.1176C9.48536 34.9525 9.456 34.7319 9.57183 34.6257C9.68965 34.521 9.90625 34.57 10.0633 34.735C10.22 34.902 10.2506 35.1211 10.1312 35.2269Z" fill="black"/>
<path d="M11.0757 36.5901C10.9289 36.6908 10.6889 36.5963 10.5406 36.3859C10.3938 36.1754 10.3938 35.923 10.5437 35.8219C10.6925 35.7207 10.9289 35.8117 11.0793 36.0206C11.2257 36.2342 11.2257 36.487 11.0757 36.5901Z" fill="black"/>
<path d="M12.3697 37.907C12.2384 38.0501 11.9587 38.0117 11.754 37.8165C11.5446 37.6256 11.4863 37.3548 11.618 37.2117C11.7509 37.0683 12.0321 37.1086 12.2384 37.3023C12.4463 37.4928 12.5098 37.7655 12.3697 37.907Z" fill="black"/>
<path d="M14.1548 38.6717C14.0969 38.8571 13.8276 38.9413 13.5562 38.8626C13.2853 38.7814 13.108 38.5643 13.1627 38.3769C13.219 38.1904 13.4896 38.1026 13.7629 38.1868C14.0335 38.2676 14.2112 38.4832 14.1548 38.6717Z" fill="black"/>
<path d="M16.1153 38.8136C16.122 39.0088 15.892 39.1706 15.6071 39.1738C15.3207 39.1804 15.0891 39.0225 15.0859 38.8304C15.0859 38.6333 15.3108 38.473 15.5972 38.4683C15.882 38.4628 16.1153 38.6196 16.1153 38.8136Z" fill="black"/>
<path d="M17.9397 38.5067C17.9738 38.6972 17.7759 38.8928 17.493 38.9445C17.2149 38.9951 16.9575 38.8775 16.9222 38.6886C16.8877 38.4934 17.0892 38.2978 17.3669 38.2472C17.6501 38.1986 17.9036 38.3131 17.9397 38.5067Z" fill="black"/>
</svg>
