<svg width="48" height="47" viewBox="0 0 48 47" fill="none" xmlns="http://www.w3.org/2000/svg">
<path fill-rule="evenodd" clip-rule="evenodd" d="M24 46.6286C10.7452 46.6286 0 36.1904 0 23.3143C0 10.4382 10.7452 0 24 0C37.2548 0 48 10.4382 48 23.3143C48 36.1904 37.2548 46.6286 24 46.6286ZM24.3344 22.0058C26.2995 22.0058 35.8544 16.7863 35.8544 16.7863L35.8698 15.8537C35.8698 14.8242 35.0096 13.9886 33.9469 13.9886H14.7219C13.6602 13.9886 12.8 14.8242 12.8 15.8537V16.6846C12.8 16.6846 22.4595 22.0058 24.3344 22.0058ZM12.8154 19.584C12.8144 19.584 22.4595 24.5704 24.3344 24.5704C26.3898 24.5704 35.8544 19.584 35.8544 19.584L35.8698 30.7749C35.8698 31.8044 35.0096 32.64 33.9469 32.64H14.7219C13.6611 32.64 12.8 31.8044 12.8 30.7749L12.8154 19.584Z" fill="black"/>
</svg>
